<svg width="200" height="440" xmlns="http://www.w3.org/2000/svg">
 <g>
  <title>Layer 1</title>
  <path fill="none" stroke="#000" opacity="NaN" d="m10.82352,214.4902" id="svg_5"/>
  <path fill="none" opacity="NaN" d="m42.6534,111.19143c65.44912,-39.72924 114.2489,0.93481 114.2489,0.93481" id="svg_11" stroke="#000"/>
  <path fill="none" stroke="#000" opacity="NaN" d="m68.24826,12.83158" id="svg_24"/>
  <g id="svg_27">
   <line fill="none" x1="99.51318" y1="339.80055" x2="74.28167" y2="239.80055" id="svg_14" stroke="#000"/>
   <line fill="none" x1="99.51318" y1="339.80055" x2="124.51318" y2="239.80055" id="svg_15" stroke="#000"/>
   <path fill="none" opacity="NaN" d="m74.55192,240.00244c28.51148,-24.94087 49.77004,0.58684 49.77004,0.58684" id="svg_18" stroke="#000"/>
  </g>
  <g id="svg_28">
   <line fill="none" x1="69.82052" y1="219.80055" x2="46.51318" y2="127.80055" id="svg_12" stroke="#000"/>
   <line fill="none" x1="129.51318" y1="219.80055" x2="152.51318" y2="127.80055" id="svg_13" stroke="#000"/>
   <path fill="none" opacity="NaN" d="m46.50368,128.0068c60.86158,-32.46528 106.24082,0.76389 106.24082,0.76389" id="svg_16" stroke="#000"/>
   <path fill="none" opacity="NaN" d="m69.93959,218.94468c34.37034,-23.87004 59.99734,0.56165 59.99734,0.56165" id="svg_17" stroke="#000"/>
  </g>
  <g id="svg_29">
   <line fill="none" stroke="#000" x1="100.10142" y1="440.38878" x2="0.10142" y2="40.38878" id="svg_2" stroke-linejoin="undefined" stroke-linecap="undefined"/>
   <line fill="none" stroke="#000" x1="100.10142" y1="440.38878" x2="200.10142" y2="40.38878" id="svg_4" stroke-linejoin="undefined" stroke-linecap="undefined"/>
   <path fill="none" opacity="NaN" d="m200.11854,41.7184c-103.04007,-92.84162 -200.00342,-0.63158 -200.01024,-0.64383" id="svg_26" stroke="#000"/>
  </g>
  <g id="svg_30">
   <path fill="none" opacity="NaN" d="m25.28362,43.73698c84.97061,-56.09224 148.32589,1.31982 148.32589,1.31982" id="svg_8" stroke="#000"/>
   <line fill="none" x1="42.51318" y1="111.80055" x2="25.51318" y2="43.80055" id="svg_9" stroke="#000"/>
   <line fill="none" x1="156.51318" y1="112.26239" x2="173.51318" y2="43.80055" id="svg_10" stroke="#000"/>
   <path fill="none" opacity="NaN" d="m42.6534,111.19143c65.44912,-39.72924 114.2489,0.93481 114.2489,0.93481" id="svg_21" stroke="#000"/>
  </g>
  <path id="svg_20" d="m31.96444,134.77426" opacity="NaN" stroke="#000" fill="none"/>
 </g>

</svg>