<?xml version="1.0" encoding="utf-8"?>
<!-- Generator: Adobe Illustrator 21.1.0, SVG Export Plug-In . SVG Version: 6.00 Build 0)  -->
<svg version="1.1" id="Calque_1" xmlns="http://www.w3.org/2000/svg" xmlns:xlink="http://www.w3.org/1999/xlink" x="0px" y="0px"
	 viewBox="0 0 3401.6 3401.6" style="enable-background:new 0 0 3401.6 3401.6;" xml:space="preserve">
<style type="text/css">
	.st0{fill:#FFFFFF;}
</style>
<g>
	<g>
		<path class="st0" d="M1565.4,2570.9l20.4,34.6c4.1,4.9,2.9,8.1-2,11.8c-23.2,17.5-51.8,28.5-88.4,28.5
			c-86.4,0-156.5-69.7-156.5-156.1c0-86.4,70.1-155.3,156.5-155.3c36.7,0,65.2,11,88.8,28.1c4.1,3.7,3.7,8.2,2.4,10.2l-21.6,36.7
			c-2.4,3.3-6.5,3.3-11.4,0.4c-19.2-11.8-36.3-18.7-58.3-18.7c-55,0-96.2,43.2-96.2,98.6c0,55,41.2,100.2,96.2,100.2
			c22,0,42.8-8.2,57-19.2C1557.3,2567.2,1561.8,2566.4,1565.4,2570.9z"/>
		<path class="st0" d="M1641.2,2347.1c0-5.3,2.4-8.1,7.7-8.1h199.3c5.3,0,8.1,2.9,8.1,8.1v39.5c0,5.3-2.9,8.1-8.1,8.1h-147.5v61.5
			h112.5c5.3,0,9,2.4,9,8.2v38.7c0,5.3-3.3,8.1-9,8.1h-112.5v74.6h151.2c5.3,0,8.6,2.9,8.6,8.1v39.1c0,5.3-3.3,8.1-8.6,8.1H1649
			c-5.3,0-7.7-2.9-7.7-8.1v-285.9H1641.2z"/>
		<path class="st0" d="M1902.8,2348c0-4.9,2.9-9,9-9h47.7c4.1,0,9.8,2,11.8,6.1l134.1,192.7v-192.7c1.6-4.9,5.7-6.1,9-6.1h41.2
			c4.1,0,9.8,3.7,9.8,9v284.4c0,6.1-3.3,9-9.8,9h-40.3c-6.5,0-8.6-2.9-11.8-6.5l-141.4-203.7v201.3c0.4,6.1-2.4,9-9,9h-41.2
			c-6.1,0-9-2.9-9-9L1902.8,2348L1902.8,2348z"/>
		<path class="st0" d="M2201.5,2346.7c0-5.3,2.4-7.7,7.7-7.7h213.9c5.3,0,8.1,2.4,8.1,7.7v38.7c0,5.3-2.9,8.1-8.1,8.1h-78.2v239.6
			c0,5.3-2.4,8.1-7.7,8.1h-44c-5.3,0-7.7-2.9-7.7-8.1v-239.6h-76.2c-5.3,0-7.7-2.9-7.7-8.1v-38.7H2201.5z"/>
		<path class="st0" d="M2474.9,2347.1c0-5.3,2.4-8.1,7.7-8.1h199.3c5.3,0,8.2,2.9,8.2,8.1v39.5c0,5.3-2.9,8.1-8.2,8.1h-147.5v61.5
			h112.5c5.3,0,9,2.4,9,8.2v38.7c0,5.3-3.3,8.1-9,8.1h-112.5v74.6h151.2c5.3,0,8.6,2.9,8.6,8.1v39.1c0,5.3-3.3,8.1-8.6,8.1h-202.9
			c-5.3,0-7.7-2.9-7.7-8.1v-285.9H2474.9z"/>
		<path class="st0" d="M2736.5,2347.1c0-4.5,2.4-8.1,7.7-8.1h129.6c55.8,0,95.8,48.1,95.8,99.4c0,34.2-20.8,66.4-51.3,84.3l55.4,110
			c2,3.7,0,8.6-5.3,8.6h-52.6c-4.5,0-6.9-1.6-9.4-6.9l-48.5-97.8H2796v96.6c0,5.3-2.4,8.1-8.1,8.1h-43.6c-5.3,0-7.7-2.9-7.7-8.1
			L2736.5,2347.1L2736.5,2347.1z M2796,2391.6v91.3h63.6c28.1,0,49.3-19.2,49.3-45.6c0-25.7-21.2-45.6-49.3-45.6L2796,2391.6
			L2796,2391.6z"/>
	</g>
	<g>
		<g>
			<path class="st0" d="M382.9,1991.8c0-5.3,2.9-8.6,8.1-8.6h44c5.3,0,7.7,3.3,7.7,8.6v285.6c0,5.3-2.4,8.1-7.7,8.1h-44
				c-5.7,0-8.1-2.9-8.1-8.1V1991.8z"/>
			<path class="st0" d="M508.8,1992.3c0-4.9,2.9-9,9-9h47.7c4.1,0,9.8,2,11.8,6.1l134.1,192.7v-192.7c1.6-4.9,5.7-6.1,9-6.1h41.2
				c4.1,0,9.8,3.7,9.8,9v284.4c0,6.1-3.3,9-9.8,9h-40.3c-6.5,0-8.6-2.9-11.8-6.5l-141.4-203.7v201.3c0.4,6.1-2.4,9-9,9h-41.2
				c-6.1,0-9-2.9-9-9v-284.5H508.8z"/>
			<path class="st0" d="M832,1992.3c0-4.9,2.9-9,9-9h47.7c4.1,0,9.8,2,11.8,6.1l134.1,192.7v-192.7c1.6-4.9,5.7-6.1,9-6.1h41.2
				c4.1,0,9.8,3.7,9.8,9v284.4c0,6.1-3.3,9-9.8,9h-40.3c-6.5,0-8.6-2.9-11.8-6.5L891,2075.4v201.3c0.4,6.1-2.4,9-9,9h-41.2
				c-6.1,0-9-2.9-9-9v-284.4H832z"/>
			<path class="st0" d="M1294.9,2289.7c-86,0-154.8-69.3-154.8-155.3c0-86.4,68.9-155.7,154.8-155.7S1451,2048,1451,2134.4
				C1450.9,2220.4,1380.8,2289.7,1294.9,2289.7z M1294.9,2035.9c-54.6,0-95.4,43.6-95.4,98.6c0,54.6,40.7,98.2,95.4,98.2
				c55,0,96.2-43.6,96.2-98.2C1391,2079.5,1349.9,2035.9,1294.9,2035.9z"/>
			<path class="st0" d="M1611.9,2278.3c-2,5.3-5.7,7.7-10.2,7.7h-34.2c-4.9,0-8.6-2.4-10.6-7.7l-112.5-286.5
				c-2.4-5.7,0.4-8.6,5.3-8.6h46.5c4.9,0,8.1,2,10.2,7.7l77.8,211.1l77.8-211c1.6-5.3,5.3-7.7,9.8-7.7h47.3c4.9,0,7.7,3.3,5.3,9
				L1611.9,2278.3z"/>
			<path class="st0" d="M1800.5,1991c2.4-5.3,6.1-7.7,10.2-7.7h34.2c4.5,0,8.1,2.4,10.2,7.7l114.9,286.1c2.4,5.3-0.4,8.6-5.7,8.6
				h-44.4c-4.9,0-8.2-2-10.2-7.3l-19.6-48.9H1765l-19.2,48.9c-2,5.3-5.7,7.3-10.2,7.3h-44.8c-5.3,0-7.7-2.9-5.3-8.6L1800.5,1991z
				 M1784.2,2176.8h86.4l-42.8-115.3L1784.2,2176.8z"/>
			<path class="st0" d="M1939.9,1991c0-5.3,2.4-7.7,7.7-7.7h213.9c5.3,0,8.1,2.4,8.1,7.7v38.7c0,5.3-2.9,8.2-8.1,8.2h-78.2v239.6
				c0,5.3-2.4,8.1-7.7,8.1h-44c-5.3,0-7.7-2.9-7.7-8.1v-239.6h-76.2c-5.3,0-7.7-2.9-7.7-8.2V1991H1939.9z"/>
			<path class="st0" d="M2213.3,1991.8c0-5.3,2.9-8.6,8.1-8.6h44c5.3,0,7.7,3.3,7.7,8.6v285.6c0,5.3-2.4,8.1-7.7,8.1h-44
				c-5.7,0-8.1-2.9-8.1-8.1V1991.8z"/>
			<path class="st0" d="M2479,2289.7c-86,0-154.8-69.3-154.8-155.3c0-86.4,68.9-155.7,154.8-155.7s156.1,69.3,156.1,155.7
				C2635.1,2220.4,2565,2289.7,2479,2289.7z M2479,2035.9c-54.6,0-95.4,43.6-95.4,98.6c0,54.6,40.7,98.2,95.4,98.2
				c55,0,96.2-43.6,96.2-98.2C2575.2,2079.5,2534,2035.9,2479,2035.9z"/>
			<path class="st0" d="M2686.8,1992.3c0-4.9,2.9-9,9-9h47.7c4.1,0,9.8,2,11.8,6.1l134.1,192.7v-192.7c1.6-4.9,5.7-6.1,9-6.1h41.2
				c4.1,0,9.8,3.7,9.8,9v284.4c0,6.1-3.3,9-9.8,9h-40.3c-6.5,0-8.6-2.9-11.8-6.5l-141.4-203.7v201.3c0.4,6.1-2.4,9-9,9h-41.2
				c-6.1,0-9-2.9-9-9v-284.5H2686.8z"/>
		</g>
	</g>
	<g>
		<g>
			<path class="st0" d="M1685.6,1689.7c0-3.8,2-5.8,5.8-5.8h69.3c54.8,0,108.7,47,108.7,107.6c0,58-47.3,105.6-107.6,107.6h-70.5
				c-3.8,0-5.8-2-5.8-5.8L1685.6,1689.7L1685.6,1689.7z M1756.9,1723h-28.7v136.9h28.7c39.7,0,69.9-30.4,69.9-68.4
				S1796.7,1723,1756.9,1723z"/>
			<path class="st0" d="M1901.6,1689.7c0-3.8,1.7-5.8,5.5-5.8H2049c3.8,0,5.8,2,5.8,5.8v28.1c0,3.8-2,5.8-5.8,5.8h-105v43.8h80
				c3.8,0,6.4,1.7,6.4,5.8v27.5c0,3.8-2.3,5.8-6.4,5.8h-80v53.1h107.6c3.8,0,6.1,2,6.1,5.8v27.8c0,3.8-2.3,5.8-6.1,5.8h-144.4
				c-3.8,0-5.5-2-5.5-5.8v-203.5H1901.6z"/>
			<path class="st0" d="M2278.9,1893.8c-1.5,3.8-4.1,5.5-7.3,5.5h-24.4c-3.5,0-6.1-1.7-7.5-5.5l-80-203.9c-1.7-4.1,0.3-6.1,3.8-6.1
				h33.1c3.5,0,5.8,1.4,7.3,5.5l55.4,150.2l55.4-150.2c1.2-3.8,3.8-5.5,7-5.5h33.6c3.5,0,5.5,2.3,3.8,6.4L2278.9,1893.8z"/>
			<path class="st0" d="M2386.8,1689.9c0-3.8,2-6.1,5.8-6.1h31.3c3.8,0,5.5,2.3,5.5,6.1v203.3c0,3.8-1.7,5.8-5.5,5.8h-31.3
				c-4.1,0-5.8-2-5.8-5.8V1689.9z"/>
			<path class="st0" d="M2476.4,1690.2c0-3.5,2-6.4,6.4-6.4h33.9c2.9,0,7,1.4,8.4,4.3l95.4,137.2v-137.2c1.2-3.5,4.1-4.3,6.4-4.3
				h29.3c2.9,0,7,2.6,7,6.4v202.4c0,4.3-2.3,6.4-7,6.4h-28.7c-4.6,0-6.1-2-8.4-4.6l-100.6-145v143.3c0.3,4.3-1.7,6.4-6.4,6.4h-29.3
				c-4.3,0-6.4-2-6.4-6.4L2476.4,1690.2L2476.4,1690.2z"/>
			<path class="st0" d="M2856.9,1848.9l14.5,24.6c2.9,3.5,2,5.8-1.5,8.4c-16.5,12.5-36.8,20.3-62.9,20.3
				c-61.5,0-111.4-49.6-111.4-111.1s49.9-110.5,111.4-110.5c26.1,0,46.4,7.8,63.2,20c2.9,2.6,2.6,5.8,1.7,7.3l-15.4,26.1
				c-1.7,2.3-4.6,2.3-8.1,0.3c-13.6-8.4-25.8-13.3-41.5-13.3c-39.1,0-68.4,30.7-68.4,70.2c0,39.1,29.3,71.3,68.4,71.3
				c15.7,0,30.4-5.8,40.6-13.6C2851.1,1846.3,2854.3,1845.7,2856.9,1848.9z"/>
			<path class="st0" d="M2910.8,1689.9c0-3.8,2-6.1,5.8-6.1h31.3c3.8,0,5.5,2.3,5.5,6.1v203.3c0,3.8-1.7,5.8-5.5,5.8h-31.3
				c-4.1,0-5.8-2-5.8-5.8V1689.9z"/>
		</g>
	</g>
</g>
<g>
	<path class="st0" d="M1843.7,991.3l-0.2-0.6l-195.8-254.4l-0.7-0.9l-208.8-98.9l-1.8-0.9l-302.5-58.7L817,649.7l-193.1,57l-1.3,0.4
		L509,837.3l-88.7,68l-20.9,180l60.2,219.3L645.4,1408l128.1-29.8l103.1,119.1l199.7-3.6l245.2,299.3l26.2-10.9l-24.2-243.4
		c25.6,10.9,83.8,37.4,84.4,37.6l1.2,0.6l152-22.8l172.4-106.1l24.9-110.3l83.5-35.5l58.4-159.7L1843.7,991.3z M1866.5,1142.6
		l-49.7,135.7l-64.2,27.3L1647,1078l172.9-59.6L1866.5,1142.6z M1071.3,1276.6l106.2,128.2l-98.2,57l-188.4,3.4l-84.2-97.3
		L1071.3,1276.6z M1361,937.9l73.5-242.6l64,138L1361,937.9z M1524.4,813.6L1464.2,684l142.1,67.3L1524.4,813.6z M1538.1,843
		l95.7-72.8l169.6,220.4l-169.7,58.5L1538.1,843z M1521.3,1344.3l102.8-240.2l97.3,209.7L1521.3,1344.3z M1469.7,1384.3l-66.3,154.9
		c-9.5-4.3-22.1-10.1-35-15.8c-40.2-17.8-52.5-22.2-58-23.4c-9.3-7.8-40-39.6-76.9-79.7L1469.7,1384.3z M1198.6,1429.3
		c9.2,10.1,24.8,27,40.7,43.9c14.6,15.6,26.6,28,35.6,36.9c6.9,6.8,11.7,11.4,15.4,14.4l20.4,205l-202.8-247.6L1198.6,1429.3z
		 M1243.2,1217.3l-48.1,158.9l-91.7-110.7L1243.2,1217.3z M993.3,786.5l-265.3,26l-68.9-83.1l165.6-48.9l275.4-63.3L993.3,786.5z
		 M971.8,820.5L869.3,983L752.5,842.1L971.8,820.5z M1411.1,663L1322,957l-297-161.3l116.7-184.9L1411.1,663z M1291.6,1167.1
		l53.7-177.3l166.9-127l91.3,196.8L1291.6,1167.1z M1592.7,1096.8l-108.3,253.1l-260.2,39.7l56-185.1L1592.7,1096.8z M1081.7,1239.4
		l-191.1-230.7l117.5-186.1L1312.6,988l-58.1,191.9L1081.7,1239.4z M457.5,916.7l68.4-52.4l188.4-18.5L847.9,1007l-207.1,147.7
		L457.5,916.7z M634.3,1198.3l117.3,152.3l-101.5,23.6l-147.4-82.1L634.3,1198.3z M868.2,1031.5l181.4,219l-264.7,91.3l-124.7-161.9
		L868.2,1031.5z M1437.3,1540.5l69.3-161.8l217.5-33.2l-18.6,82.5l-155.5,95.7L1437.3,1540.5z M558.2,829.2l73.1-83.7l58.6,70.8
		L558.2,829.2z M615,1173.1l-132.6,94.6l-50.8-185l14.9-128.4L615,1173.1z"/>
</g>
</svg>
