<svg version="1.2" baseProfile="tiny-ps" xmlns="http://www.w3.org/2000/svg" viewBox="0 0 4402 1350" width="4402" height="1350">
	<title>Logo DVIC 120x120-ai</title>
	<defs>
		<linearGradient id="grd1" gradientUnits="userSpaceOnUse"  x1="-38.337" y1="486.118" x2="959.718" y2="-327.876">
			<stop offset="0.204" stop-color="#158ea9"  />
			<stop offset="0.5" stop-color="#df2c59"  />
			<stop offset="0.813" stop-color="#ff7729"  />
		</linearGradient>
	</defs>
	<style>
		tspan { white-space:pre }
		.shp0 { fill: #2c2e35 } 
		.shp1 { fill: url(#grd1) } 
	</style>
	<g id="Calque 1">
		<g id="&lt;Group&gt;">
			<g id="&lt;Group&gt;">
				<path id="&lt;Compound Path&gt;" class="shp0" d="M1968.43 1082.28L1988.81 1116.91C1992.88 1121.8 1991.66 1125.06 1986.77 1128.73C1963.54 1146.25 1935.02 1157.25 1898.34 1157.25C1811.96 1157.25 1741.87 1087.57 1741.87 1001.19C1741.87 914.8 1811.96 845.93 1898.34 845.93C1935.02 845.93 1963.54 856.94 1987.18 874.05C1991.25 877.72 1990.84 882.2 1989.62 884.24L1968.02 920.91C1965.58 924.17 1961.5 924.17 1956.61 921.32C1937.46 909.5 1920.35 902.58 1898.34 902.58C1843.33 902.58 1802.18 945.77 1802.18 1001.19C1802.18 1056.2 1843.33 1101.43 1898.34 1101.43C1920.35 1101.43 1941.13 1093.28 1955.39 1082.28C1960.28 1078.61 1964.76 1077.79 1968.43 1082.28Z" />
				<path id="&lt;Compound Path&gt;" class="shp0" d="M2044.22 858.57C2044.22 853.27 2046.66 850.42 2051.96 850.42L2251.22 850.42C2256.52 850.42 2259.37 853.27 2259.37 858.57L2259.37 898.09C2259.37 903.39 2256.52 906.24 2251.22 906.24L2103.71 906.24L2103.71 967.77L2216.18 967.77C2221.48 967.77 2225.14 970.22 2225.14 975.92L2225.14 1014.63C2225.14 1019.93 2221.88 1022.78 2216.18 1022.78L2103.71 1022.78L2103.71 1097.35L2254.89 1097.35C2260.19 1097.35 2263.45 1100.21 2263.45 1105.5L2263.45 1144.62C2263.45 1149.92 2260.19 1152.77 2254.89 1152.77L2051.96 1152.77C2046.66 1152.77 2044.22 1149.92 2044.22 1144.62L2044.22 858.57Z" />
				<path id="&lt;Compound Path&gt;" class="shp0" d="M2305.83 859.38C2305.83 854.49 2308.68 850.42 2314.79 850.42L2362.46 850.42C2366.54 850.42 2372.25 852.45 2374.28 856.53L2508.35 1049.27L2508.35 856.53C2509.98 851.64 2514.05 850.42 2517.31 850.42L2558.47 850.42C2562.54 850.42 2568.25 854.08 2568.25 859.38L2568.25 1143.81C2568.25 1149.92 2564.99 1152.77 2558.47 1152.77L2518.13 1152.77C2511.61 1152.77 2509.57 1149.92 2506.31 1146.25L2364.91 942.51L2364.91 1143.81C2365.32 1149.92 2362.46 1152.77 2355.95 1152.77L2314.79 1152.77C2308.68 1152.77 2305.83 1149.92 2305.83 1143.81L2305.83 859.38Z" />
				<path id="&lt;Compound Path&gt;" class="shp0" d="M2604.51 858.16C2604.51 852.86 2606.96 850.42 2612.25 850.42L2826.18 850.42C2831.48 850.42 2834.33 852.86 2834.33 858.16L2834.33 896.87C2834.33 902.17 2831.48 905.02 2826.18 905.02L2747.95 905.02L2747.95 1144.62C2747.95 1149.92 2745.5 1152.77 2740.21 1152.77L2696.2 1152.77C2690.9 1152.77 2688.45 1149.92 2688.45 1144.62L2688.45 905.02L2612.25 905.02C2606.96 905.02 2604.51 902.17 2604.51 896.87L2604.51 858.16Z" />
				<path id="&lt;Compound Path&gt;" class="shp0" d="M2877.93 858.57C2877.93 853.27 2880.38 850.42 2885.68 850.42L3084.94 850.42C3090.23 850.42 3093.09 853.27 3093.09 858.57L3093.09 898.09C3093.09 903.39 3090.23 906.24 3084.94 906.24L2937.43 906.24L2937.43 967.77L3049.89 967.77C3055.19 967.77 3058.86 970.22 3058.86 975.92L3058.86 1014.63C3058.86 1019.93 3055.6 1022.78 3049.89 1022.78L2937.43 1022.78L2937.43 1097.35L3088.6 1097.35C3093.9 1097.35 3097.16 1100.21 3097.16 1105.5L3097.16 1144.62C3097.16 1149.92 3093.9 1152.77 3088.6 1152.77L2885.68 1152.77C2880.38 1152.77 2877.93 1149.92 2877.93 1144.62L2877.93 858.57Z" />
				<path id="&lt;Compound Path&gt;" fill-rule="evenodd" class="shp0" d="M3139.54 858.57C3139.54 854.08 3141.98 850.42 3147.28 850.42L3276.86 850.42C3332.69 850.42 3372.62 898.5 3372.62 949.84C3372.62 984.07 3351.84 1016.26 3321.28 1034.19L3376.7 1144.21C3378.73 1147.88 3376.7 1152.77 3371.4 1152.77L3318.83 1152.77C3314.35 1152.77 3311.91 1151.14 3309.46 1145.84L3260.97 1048.05L3199.03 1048.05L3199.03 1144.62C3199.03 1149.92 3196.59 1152.77 3190.88 1152.77L3147.28 1152.77C3141.98 1152.77 3139.54 1149.92 3139.54 1144.62L3139.54 858.57ZM3199.03 902.98L3199.03 994.26L3262.6 994.26C3290.72 994.26 3311.91 975.11 3311.91 948.62C3311.91 922.95 3290.72 902.98 3262.6 902.98L3199.03 902.98Z" />
			</g>
			<g id="&lt;Group&gt;">
				<g id="&lt;Group&gt;">
					<path id="&lt;Compound Path&gt;" class="shp0" d="M1741.91 503.27C1741.91 497.97 1744.76 494.71 1750.06 494.71L1794.06 494.71C1799.36 494.71 1801.81 497.97 1801.81 503.27L1801.81 788.92C1801.81 794.22 1799.36 797.07 1794.06 797.07L1750.06 797.07C1744.35 797.07 1741.91 794.22 1741.91 788.92L1741.91 503.27Z" />
					<path id="&lt;Compound Path&gt;" class="shp0" d="M1867.82 503.68C1867.82 498.79 1870.67 494.71 1876.78 494.71L1924.46 494.71C1928.53 494.71 1934.24 496.75 1936.27 500.83L2070.34 693.57L2070.34 500.83C2071.97 495.94 2076.04 494.71 2079.3 494.71L2120.46 494.71C2124.53 494.71 2130.24 498.38 2130.24 503.68L2130.24 788.1C2130.24 794.22 2126.98 797.07 2120.46 797.07L2080.12 797.07C2073.6 797.07 2071.56 794.22 2068.3 790.55L1926.9 586.81L1926.9 788.1C1927.31 794.22 1924.46 797.07 1917.94 797.07L1876.78 797.07C1870.67 797.07 1867.82 794.22 1867.82 788.1L1867.82 503.68Z" />
					<path id="&lt;Compound Path&gt;" class="shp0" d="M2190.95 503.68C2190.95 498.79 2193.8 494.71 2199.92 494.71L2247.59 494.71C2251.67 494.71 2257.37 496.75 2259.41 500.83L2393.47 693.57L2393.47 500.83C2395.1 495.94 2399.18 494.71 2402.44 494.71L2443.59 494.71C2447.67 494.71 2453.37 498.38 2453.37 503.68L2453.37 788.1C2453.37 794.22 2450.11 797.07 2443.59 797.07L2403.25 797.07C2396.73 797.07 2394.69 794.22 2391.43 790.55L2250.04 586.81L2250.04 788.1C2250.44 794.22 2247.59 797.07 2241.07 797.07L2199.92 797.07C2193.8 797.07 2190.95 794.22 2190.95 788.1L2190.95 503.68Z" />
					<path id="&lt;Compound Path&gt;" fill-rule="evenodd" class="shp0" d="M2653.86 801.14C2567.88 801.14 2499.01 731.87 2499.01 645.89C2499.01 559.51 2567.88 490.23 2653.86 490.23C2739.84 490.23 2809.92 559.51 2809.92 645.89C2809.92 731.87 2739.84 801.14 2653.86 801.14ZM2653.86 547.28C2599.25 547.28 2558.5 590.88 2558.5 645.89C2558.5 700.5 2599.25 744.1 2653.86 744.1C2708.87 744.1 2750.02 700.5 2750.02 645.89C2750.02 590.88 2708.87 547.28 2653.86 547.28Z" />
					<path id="&lt;Compound Path&gt;" class="shp0" d="M2970.88 789.73C2968.85 795.03 2965.18 797.48 2960.7 797.48L2926.47 797.48C2921.58 797.48 2917.91 795.03 2915.87 789.73L2803.41 503.27C2800.96 497.57 2803.82 494.71 2808.71 494.71L2855.16 494.71C2860.05 494.71 2863.31 496.75 2865.35 502.46L2943.18 713.54L3021.01 502.46C3022.64 497.16 3026.3 494.71 3030.79 494.71L3078.05 494.71C3082.94 494.71 3085.8 497.97 3083.35 503.68L2970.88 789.73Z" />
					<path id="&lt;Compound Path&gt;" fill-rule="evenodd" class="shp0" d="M3159.55 502.46C3161.99 497.16 3165.66 494.71 3169.73 494.71L3203.96 494.71C3208.44 494.71 3212.11 497.16 3214.15 502.46L3329.06 788.51C3331.5 793.81 3328.65 797.07 3323.35 797.07L3278.94 797.07C3274.05 797.07 3270.79 795.03 3268.75 789.73L3249.19 740.84L3124.09 740.84L3104.94 789.73C3102.9 795.03 3099.24 797.07 3094.75 797.07L3049.93 797.07C3044.63 797.07 3042.19 794.22 3044.63 788.51L3159.55 502.46ZM3143.25 688.27L3229.63 688.27L3186.85 572.95L3143.25 688.27Z" />
					<path id="&lt;Compound Path&gt;" class="shp0" d="M3298.9 502.46C3298.9 497.16 3301.35 494.71 3306.65 494.71L3520.58 494.71C3525.87 494.71 3528.73 497.16 3528.73 502.46L3528.73 541.17C3528.73 546.47 3525.87 549.32 3520.58 549.32L3442.34 549.32L3442.34 788.92C3442.34 794.22 3439.89 797.07 3434.6 797.07L3390.59 797.07C3385.29 797.07 3382.85 794.22 3382.85 788.92L3382.85 549.32L3306.65 549.32C3301.35 549.32 3298.9 546.47 3298.9 541.17L3298.9 502.46Z" />
					<path id="&lt;Compound Path&gt;" class="shp0" d="M3572.33 503.27C3572.33 497.97 3575.18 494.71 3580.47 494.71L3624.48 494.71C3629.78 494.71 3632.23 497.97 3632.23 503.27L3632.23 788.92C3632.23 794.22 3629.78 797.07 3624.48 797.07L3580.47 797.07C3574.77 797.07 3572.33 794.22 3572.33 788.92L3572.33 503.27Z" />
					<path id="&lt;Compound Path&gt;" fill-rule="evenodd" class="shp0" d="M3838 801.14C3752.02 801.14 3683.16 731.87 3683.16 645.89C3683.16 559.51 3752.02 490.23 3838 490.23C3923.98 490.23 3994.07 559.51 3994.07 645.89C3994.07 731.87 3923.98 801.14 3838 801.14ZM3838 547.28C3783.4 547.28 3742.65 590.88 3742.65 645.89C3742.65 700.5 3783.4 744.1 3838 744.1C3893.01 744.1 3934.17 700.5 3934.17 645.89C3934.17 590.88 3893.01 547.28 3838 547.28Z" />
					<path id="&lt;Compound Path&gt;" class="shp0" d="M4045.82 503.68C4045.82 498.79 4048.67 494.71 4054.78 494.71L4102.46 494.71C4106.53 494.71 4112.24 496.75 4114.28 500.83L4248.34 693.57L4248.34 500.83C4249.97 495.94 4254.04 494.71 4257.3 494.71L4298.46 494.71C4302.54 494.71 4308.24 498.38 4308.24 503.68L4308.24 788.1C4308.24 794.22 4304.98 797.07 4298.46 797.07L4258.12 797.07C4251.6 797.07 4249.56 794.22 4246.3 790.55L4104.9 586.81L4104.9 788.1C4105.31 794.22 4102.46 797.07 4095.94 797.07L4054.78 797.07C4048.67 797.07 4045.82 794.22 4045.82 788.1L4045.82 503.68Z" />
				</g>
			</g>
			<g id="&lt;Group&gt;">
				<g id="&lt;Group&gt;">
					<path id="&lt;Compound Path&gt;" fill-rule="evenodd" class="shp0" d="M1741.6 201.08C1741.6 197.31 1743.63 195.28 1747.4 195.28L1816.71 195.28C1871.52 195.28 1925.46 242.26 1925.46 302.87C1925.46 360.87 1878.19 408.42 1817.87 410.46L1747.4 410.46C1743.63 410.46 1741.6 408.42 1741.6 404.66L1741.6 201.08ZM1812.94 234.43L1784.23 234.43L1784.23 371.31L1812.94 371.31C1852.67 371.31 1882.83 340.86 1882.83 302.87C1882.83 264.88 1852.67 234.43 1812.94 234.43Z" />
					<path id="&lt;Compound Path&gt;" class="shp0" d="M1957.65 201.08C1957.65 197.31 1959.39 195.28 1963.16 195.28L2104.96 195.28C2108.74 195.28 2110.76 197.31 2110.76 201.08L2110.76 229.21C2110.76 232.98 2108.74 235.01 2104.96 235.01L1999.99 235.01L1999.99 278.8L2080.03 278.8C2083.8 278.8 2086.41 280.54 2086.41 284.6L2086.41 312.15C2086.41 315.92 2084.09 317.95 2080.03 317.95L1999.99 317.95L1999.99 371.02L2107.58 371.02C2111.34 371.02 2113.67 373.05 2113.67 376.82L2113.67 404.66C2113.67 408.42 2111.34 410.46 2107.58 410.46L1963.16 410.46C1959.39 410.46 1957.65 408.42 1957.65 404.66L1957.65 201.08Z" />
					<path id="&lt;Compound Path&gt;" class="shp0" d="M2334.93 405.24C2333.48 409.01 2330.87 410.75 2327.68 410.75L2303.32 410.75C2299.84 410.75 2297.23 409.01 2295.78 405.24L2215.75 201.37C2214.01 197.31 2216.04 195.28 2219.52 195.28L2252.57 195.28C2256.05 195.28 2258.37 196.73 2259.82 200.79L2315.21 351.01L2370.6 200.79C2371.76 197.02 2374.37 195.28 2377.56 195.28L2411.2 195.28C2414.68 195.28 2416.71 197.6 2414.97 201.66L2334.93 405.24Z" />
					<path id="&lt;Compound Path&gt;" class="shp0" d="M2442.81 201.37C2442.81 197.6 2444.84 195.28 2448.61 195.28L2479.93 195.28C2483.7 195.28 2485.44 197.6 2485.44 201.37L2485.44 404.66C2485.44 408.42 2483.7 410.46 2479.93 410.46L2448.61 410.46C2444.55 410.46 2442.81 408.42 2442.81 404.66L2442.81 201.37Z" />
					<path id="&lt;Compound Path&gt;" class="shp0" d="M2532.42 201.66C2532.42 198.18 2534.45 195.28 2538.8 195.28L2572.73 195.28C2575.63 195.28 2579.69 196.73 2581.14 199.63L2676.55 336.8L2676.55 199.63C2677.71 196.15 2680.6 195.28 2682.92 195.28L2712.21 195.28C2715.11 195.28 2719.17 197.89 2719.17 201.66L2719.17 404.08C2719.17 408.42 2716.85 410.46 2712.21 410.46L2683.5 410.46C2678.87 410.46 2677.42 408.42 2675.09 405.82L2574.47 260.82L2574.47 404.08C2574.76 408.42 2572.73 410.46 2568.09 410.46L2538.8 410.46C2534.45 410.46 2532.42 408.42 2532.42 404.08L2532.42 201.66Z" />
					<path id="&lt;Compound Path&gt;" class="shp0" d="M2912.89 360.29L2927.39 384.94C2930.29 388.42 2929.42 390.74 2925.94 393.35C2909.41 405.82 2889.12 413.64 2863.02 413.64C2801.54 413.64 2751.66 364.06 2751.66 302.58C2751.66 241.1 2801.54 192.09 2863.02 192.09C2889.12 192.09 2909.41 199.92 2926.23 212.1C2929.13 214.71 2928.84 217.9 2927.97 219.35L2912.6 245.45C2910.86 247.77 2907.96 247.77 2904.48 245.74C2890.85 237.33 2878.67 232.4 2863.02 232.4C2823.87 232.4 2794.58 263.14 2794.58 302.58C2794.58 341.73 2823.87 373.92 2863.02 373.92C2878.67 373.92 2893.46 368.12 2903.61 360.29C2907.09 357.68 2910.28 357.1 2912.89 360.29Z" />
					<path id="&lt;Compound Path&gt;" class="shp0" d="M2966.83 201.37C2966.83 197.6 2968.86 195.28 2972.63 195.28L3003.95 195.28C3007.72 195.28 3009.46 197.6 3009.46 201.37L3009.46 404.66C3009.46 408.42 3007.72 410.46 3003.95 410.46L2972.63 410.46C2968.57 410.46 2966.83 408.42 2966.83 404.66L2966.83 201.37Z" />
				</g>
			</g>
		</g>
		<g id="&lt;Group&gt;">
			<path id="&lt;Compound Path&gt;" fill-rule="evenodd" class="shp1" d="M1596.41 632.88L1537.99 792.57L1454.48 828.11L1429.58 938.38L1257.21 1044.45L1105.2 1067.25L1103.96 1066.69C1103.31 1066.39 1045.09 1039.93 1019.53 1029.04L1043.73 1272.45L1017.48 1283.32L772.31 984L572.63 987.6L469.56 868.54L341.43 898.38L155.53 794.89L95.31 575.64L116.26 395.67L205 327.7L318.67 197.53L319.96 197.15L513.03 140.17L829.87 67.34L1132.34 126L1134.15 126.85L1342.95 225.76L1343.63 226.64L1539.47 481.05L1539.71 481.7L1596.41 632.88ZM1516 508.9L1343.13 568.5L1448.71 796.05L1512.89 768.74L1562.55 633.02L1516 508.9ZM502.66 858.26L586.91 955.58L775.31 952.19L873.5 895.22L767.29 767.03L502.66 858.26ZM1194.52 323.66L1130.48 185.66L1057 428.3L1194.52 323.66ZM1302.32 241.64L1160.24 174.35L1220.39 303.98L1302.32 241.64ZM1329.69 539.54L1499.39 481.04L1329.75 260.67L1234.07 333.47L1329.69 539.54ZM1417.48 804.18L1320.17 594.48L1217.34 834.71L1417.48 804.18ZM929.47 910.75C966.35 950.79 997.07 982.63 1006.34 990.41C1011.85 991.63 1024.19 995.96 1064.35 1013.8C1077.23 1019.52 1089.91 1025.28 1099.37 1029.61L1165.67 874.72L929.47 910.75ZM803.81 972.36L1006.6 1219.92L986.22 1014.92C982.58 1011.88 977.74 1007.33 970.86 1000.49C961.87 991.54 949.9 979.12 935.27 963.57C919.43 946.73 903.8 929.75 894.6 919.69L803.81 972.36ZM799.36 755.97L891.06 866.65L939.19 707.77L799.36 755.97ZM796.16 107.67L520.75 170.98L355.18 219.86L424.03 302.97L689.29 276.94L796.16 107.67ZM448.48 332.48L565.26 473.42L667.82 310.95L448.48 332.48ZM837.78 101.21L721.05 286.12L1018.05 447.38L1107.06 153.44L837.78 101.21ZM1299.51 549.95L1208.2 353.15L1041.3 480.15L987.59 657.49L1299.51 549.95ZM976.23 694.99L920.19 880.05L1180.38 840.35L1288.73 587.25L976.23 694.99ZM950.54 670.26L1008.65 478.41L704.06 313.03L586.57 499.15L777.72 729.85L950.54 670.26ZM336.83 645.1L543.89 497.39L410.34 336.22L221.97 354.7L153.54 407.11L336.83 645.1ZM198.74 782.6L346.17 864.68L447.66 841.04L330.35 688.72L198.74 782.6ZM356.21 670.27L480.91 832.18L745.64 740.91L564.2 521.91L356.21 670.27ZM1246.09 1014.01L1401.55 918.35L1420.17 835.89L1202.62 869.08L1133.34 1030.93L1246.09 1014.01ZM385.9 306.71L327.27 235.95L254.2 319.63L385.9 306.71ZM142.51 444.82L127.56 573.18L178.37 758.13L310.96 663.55L142.51 444.82Z" />
		</g>
	</g>
</svg>